<?xml version="1.0" encoding="UTF-8"?>
<svg width="80px" height="32px" viewBox="0 0 80 32" version="1.1" xmlns="http://www.w3.org/2000/svg" xmlns:xlink="http://www.w3.org/1999/xlink">
    <!-- Generator: Sketch 49.3 (51167) - http://www.bohemiancoding.com/sketch -->
    <title>logo_bmo_en</title>
    <desc>Created with Sketch.</desc>
    <defs>
        <polygon id="path-1" points="32 5.32907052e-15 0 5.32907052e-15 0 31.9400005 32 31.9400005 32 1.01882783e-14"></polygon>
    </defs>
    <g id="logo_bmo_en" stroke="none" stroke-width="1" fill="none" fill-rule="evenodd">
        <g id="BMO-Logo" transform="translate(1.000000, 0.000000)">
            <g id="Group-5">
                <g id="Group-6" transform="translate(44.000000, 0.000000)">
                    <g id="Group-3">
                        <mask id="mask-2" fill="white">
                            <use xlink:href="#path-1"></use>
                        </mask>
                        <g id="Clip-2"></g>
                        <path d="M16.0279878,0 C7.19534665,0 0.029357866,7.16462905 0.029357866,16.0017129 C0.029357866,24.840167 7.19534665,32 16.0279878,32 C24.8661092,32 32.0293579,24.840167 32.0293579,16.0017129 C32.0293579,7.16462905 24.8661092,0 16.0279878,0" id="Fill-1" fill="#ED1C24" mask="url(#mask-2)"></path>
                    </g>
                    <path d="M15.6942094,10.93552 L12.9743372,7.24954236 C12.8643621,7.09898049 12.6893407,7 12.4921903,7 C12.301075,7 12.1300771,7.09131299 12.0194314,7.23629849 L8.78187153,11.4778215 L8.78187153,18.1241522 L11.9999846,13.8366242 C12.1153243,13.6846682 12.2923574,13.5870818 12.4921903,13.5870818 C12.6947054,13.5870818 12.8744208,13.6874564 12.9877488,13.8401094 L15.720362,17.5553629 C15.8249725,17.6975603 15.9879234,17.7888733 16.1723329,17.7888733 C16.3567424,17.7888733 16.5210344,17.6975603 16.6249743,17.5553629 L19.3569169,13.8401094 C19.4715861,13.6874564 19.6506309,13.5870818 19.8531461,13.5870818 C20.0529789,13.5870818 20.230012,13.6846682 20.3440106,13.8366242 L23.5621236,18.1241522 L23.5621236,11.4778215 L20.3259049,7.23629849 C20.2145887,7.09131299 20.0435908,7 19.8531461,7 C19.6559956,7 19.4809742,7.09898049 19.3703285,7.24954236 L16.6517975,10.93552 C16.5404813,11.0832937 16.3668011,11.1787889 16.1723329,11.1787889 C15.9778647,11.1787889 15.8041845,11.0832937 15.6942094,10.93552 L15.6942094,10.93552 Z M23.5621236,22.9971987 L8.78187153,22.9971987 L8.79260081,22.9853489 L8.78187153,22.9971987 L8.78187153,18.1241522 L23.5621236,18.1241522 L23.5513944,18.1339109 L23.5621236,18.1241522 L23.5621236,22.9971987 Z" id="Fill-8" fill="#FFFFFF"></path>
                </g>
                <g id="Group-2" transform="translate(73.827586, 3.413793)" fill="#FFFFFF">
                    <path d="M2.55686502,0.617994979 C1.59242884,0.617994979 0.810044957,1.4312572 0.810044957,2.43506637 C0.810044957,3.43822073 1.59242884,4.25279256 2.55686502,4.25279256 C3.52256107,4.25279256 4.30494496,3.43822073 4.30494496,2.43506637 C4.30494496,1.4312572 3.52256107,0.617994979 2.55686502,0.617994979 M2.55686502,4.00069436 C1.74046444,4.00069436 1.07713897,3.30005783 1.07713897,2.43506637 C1.07713897,1.57203931 1.74046444,0.870093172 2.55686502,0.870093172 C3.37515541,0.870093172 4.03911082,1.57203931 4.03911082,2.43506637 C4.03911082,3.30005783 3.37515541,4.00069436 2.55686502,4.00069436" id="Fill-4"></path>
                    <path d="M3.36677722,1.98063482 C3.36677722,1.57662291 3.13936935,1.39262397 2.70282182,1.39262397 L1.92547744,1.39262397 L1.92547744,3.47881837 L2.16863379,3.47881837 L2.16863379,2.55227566 L2.58880291,2.55227566 L3.15511782,3.47881837 L3.44677944,3.47881837 L2.84770772,2.55227566 C3.17023635,2.50054642 3.36677722,2.27136624 3.36677722,1.98063482 L3.36677722,1.98063482 Z M2.16863379,2.33357229 L2.16863379,1.61001774 L2.58880291,1.61001774 C2.94534822,1.61001774 3.10661253,1.72002422 3.10661253,1.97343201 C3.10661253,2.22422061 2.94534822,2.33357229 2.58880291,2.33357229 L2.16863379,2.33357229 Z" id="Fill-6"></path>
                </g>
                <g id="Group-4" transform="translate(0.000000, 10.000000)" fill="#FFFFFF">
                    <path d="M7.51785178,3.09700875 C7.51785178,4.43108922 6.930442,5.17109773 5.38344173,5.17109773 L4.06955109,5.17109773 L4.06955109,1.08212045 C4.23709864,1.06559933 4.79801869,1.05252011 4.96424175,1.05252011 L5.41721614,1.05252011 C6.99600409,1.05252011 7.51785178,1.74984907 7.51785178,3.09700875 M10.6727787,8.40304189 C10.6727787,6.29659905 9.01849502,5.53525076 7.01388465,5.48844092 L7.01388465,5.40790046 C8.71717433,5.26540579 10.1198056,4.52264376 10.1198056,2.73147897 C10.1198056,0.737242067 8.53307071,0.36551686 6.76090773,0.36551686 C4.62914665,0.36551686 2.12520486,0.424029161 6.62243247e-05,0.36551686 L6.62243247e-05,1.05114335 C0.448404915,1.02016625 1.54044406,1.08212045 1.54044406,1.67068536 L1.54044406,10.1673599 C1.54044406,10.7352734 0.419266212,10.8137487 6.62243247e-05,10.8137487 L6.62243247e-05,11.4814773 C2.05699381,11.4264069 4.49603576,11.4814773 6.56091026,11.4814773 C8.73439266,11.4814773 10.6727787,10.7187523 10.6727787,8.40304189 M7.94963439,8.18964409 C7.94963439,9.93262228 7.36686032,10.7593667 5.33311125,10.7593667 L4.06955109,10.7593667 L4.06955109,5.88770133 L5.41721614,5.88770133 C7.26355037,5.88770133 7.94963439,6.53753206 7.94963439,8.18964409" id="Fill-10"></path>
                    <path d="M24.4306177,11.4642678 C23.4750006,11.4642678 22.5207081,11.451877 21.5664155,11.4814773 L21.5664155,10.7992927 C22.0008471,10.7992927 23.2054676,10.7731343 23.2054676,10.1673599 L23.2054676,2.2860971 L23.1723554,2.2860971 L18.8585028,11.6301674 L18.3373174,11.6301674 L14.1307481,2.2688876 L14.097636,2.2688876 L14.097636,10.1673599 C14.097636,10.7875903 15.2923228,10.7992927 15.744635,10.7992927 L15.7618533,11.4814773 C14.5704777,11.4415513 12.9453327,11.4140161 11.7718376,11.4814773 L11.7718376,10.7992927 C12.2254743,10.7992927 13.2506268,10.7614318 13.2506268,10.1673599 L13.2506268,1.68101107 C13.2506268,1.09864157 12.1910376,1.05114335 11.7718376,1.05114335 L11.7546193,0.36551686 C13.114867,0.423340781 14.5704777,0.423340781 15.9274141,0.36551686 L19.5406134,8.23989583 L23.2220237,0.3813496 C24.5292919,0.441238661 26.0047699,0.423340781 27.3087269,0.36551686 L27.3087269,1.05114335 C26.8776065,1.05114335 25.7378859,1.08212045 25.7378859,1.68101107 L25.7378859,10.1673599 C25.7378859,10.7731343 26.8610504,10.7992927 27.3087269,10.7992927 L27.3087269,11.4814773 C26.3557588,11.451877 25.3855724,11.4642678 24.4306177,11.4642678" id="Fill-12"></path>
                    <path d="M37.3656856,6.21475568 C37.3656856,8.33290098 37.1630391,11.2915583 34.1365874,11.2915583 C31.1074867,11.2915583 30.8889464,8.33290098 30.8889464,6.21475568 C30.8889464,4.0993639 31.1074867,1.15998124 34.1365874,1.15998124 C37.1471453,1.15998124 37.3656856,4.11381988 37.3656856,6.21475568 M40.1974378,6.21475568 C40.1974378,2.53811803 38.0352135,0.475043132 34.1365874,0.475043132 C30.2346501,0.475043132 28.056532,2.51884339 28.056532,6.21475568 C28.056532,9.91479825 30.2174318,11.9716777 34.1365874,11.9716777 C38.0524318,11.9716777 40.1974378,9.91479825 40.1974378,6.21475568" id="Fill-14"></path>
                </g>
            </g>
        </g>
    </g>
</svg>