<svg enable-background="new 0 0 256 256" height="240px" id="Layer_1" version="1.0" viewBox="0 0 256 256" width="240px" xml:space="preserve" xmlns="http://www.w3.org/2000/svg" xmlns:xlink="http://www.w3.org/1999/xlink"><g id="Card_55_"><path d="M240,0H16C7.164,0,0,7.164,0,16v224c0,8.836,7.164,16,16,16h224c8.836,0,16-7.164,16-16   V16C256,7.164,248.836,0,240,0z" fill="#D6D6D6" id="browser_56_"/><path d="M232,48H24c-4.418,0-8,3.582-8,8v176c0,4.418,3.582,8,8,8h208c4.418,0,8-3.582,8-8V56   C240,51.582,236.418,48,232,48z" fill="#F6F6F6" id="screen_56_"/><path d="M32,24c0,4.418-3.582,8-8,8s-8-3.582-8-8s3.582-8,8-8S32,19.582,32,24z M56,16   c-4.418,0-8,3.582-8,8s3.582,8,8,8s8-3.582,8-8S60.418,16,56,16z M88,16c-4.418,0-8,3.582-8,8s3.582,8,8,8s8-3.582,8-8   S92.418,16,88,16z" fill="#FFFFFF" id="actions_56_"/><path d="M192,172c0-2.211-1.789-4-4-4H68c-2.211,0-4,1.789-4,4l0,0c0,2.211,1.789,4,4,4h120   C190.211,176,192,174.211,192,172L192,172z M184,196c0-2.211-1.789-4-4-4H76c-2.211,0-4,1.789-4,4l0,0c0,2.211,1.789,4,4,4h104   C182.211,200,184,198.211,184,196L184,196z" fill="#D6D6D6"/><g><path d="M164,116c0-19.883-16.113-36-36-36s-36,16.117-36,36s16.113,36,36,36S164,135.883,164,116z" fill="#999999"/><path d="M133.656,116l9.172-9.172c1.562-1.562,1.562-4.094,0-5.656s-4.094-1.562-5.656,0L128,110.344l-9.172-9.172    c-1.562-1.562-4.094-1.562-5.656,0s-1.562,4.094,0,5.656l9.172,9.172l-9.172,9.172c-1.562,1.562-1.562,4.094,0,5.656    c0.781,0.781,1.805,1.172,2.828,1.172s2.047-0.391,2.828-1.172l9.172-9.172l9.172,9.172c0.781,0.781,1.805,1.172,2.828,1.172    s2.047-0.391,2.828-1.172c1.562-1.562,1.562-4.094,0-5.656L133.656,116z" fill="#FFFFFF"/></g></g></svg>